<svg width="20" height="20" viewBox="0 0 45 45" fill="none" xmlns="http://www.w3.org/2000/svg">
<path d="M22.5 45C34.926 45 45 34.926 45 22.5S34.926 0 22.5 0 0 10.074 0 22.5 10.074 45 22.5 45Z" fill="#8247E5"></path>
<path d="M30.291 16.547c-.564-.388-1.298-.388-1.92 0l-4.403 2.976-2.992 1.941-4.404 2.976c-.564.388-1.298.388-1.92 0l-3.5-2.329c-.564-.388-.96-1.1-.96-1.876v-4.593c0-.777.34-1.488.96-1.876l3.444-2.265c.565-.388 1.299-.388 1.92 0l3.444 2.265c.564.388.96 1.1.96 1.876v2.976l2.992-2.006v-2.976c0-.776-.34-1.488-.96-1.876l-6.38-4.27c-.564-.388-1.298-.388-1.92 0L8.16 11.76c-.621.388-.96 1.1-.96 1.876v8.605c0 .776.339 1.488.96 1.876l6.493 4.27c.564.387 1.298.387 1.92 0l4.403-2.912 2.992-2.005 4.404-2.912c.564-.388 1.298-.388 1.92 0l3.443 2.265c.565.388.96 1.1.96 1.876v4.593c0 .776-.339 1.488-.96 1.876l-3.444 2.33c-.564.387-1.298.387-1.92 0l-3.443-2.265c-.565-.388-.96-1.1-.96-1.876V26.38l-2.992 2.005v2.976c0 .777.339 1.488.96 1.876l6.492 4.27c.565.388 1.299.388 1.92 0l6.492-4.27c.565-.388.96-1.1.96-1.876v-8.604c0-.776-.339-1.488-.96-1.876l-6.549-4.335Z" fill="#fff"></path>
</svg>